# xmcd CD database file
# Copyright (C) 1993-1999 CDDB, Inc.
#
# Track frame offsets:
#	150
#	16279
#	30780
#	43241
#	52444
#	64423
#	79031
#	93181
#	107860
#	120491
#	133452
#	152408
#	164959
#	180696
#	193976
#	205132
#	221652
#	237875
#	250438
#	261230
#	277566
#
# Disc length: 3876
#
# Revision: 2
# Processed by: cddbd v1.5.1PL0 Copyright (c) Steve Scherf et al.
# Submitted via: CoolCD_Studio 1.3.1
#
DISCID=380f2215
DTITLE=Count Basie and The Mills Brothers - The Board of Directors - 
DTITLE=Annual Report
DYEAR=1995
DGENRE=
TTITLE0=Up A Lazy River
TTITLE1=I May Be Wrong But I Think You're Wonderful
TTITLE2=Release Me
TTITLE3=I Want To Be Happy
TTITLE4=Down-Down-Down
TTITLE5=The Whiffenpoof Song
TTITLE6=I Dig Rock And Roll Music
TTITLE7=Tiny Bubbles
TTITLE8=December
TTITLE9=Let Me Dream
TTITLE10=April In Paris
TTITLE11=Gentle On My Mind
TTITLE12=Cherry
TTITLE13=You Never Miss The Water Till The Well Runs Dry
TTITLE14=Glow Worm
TTITLE15=Sent For You Yesterday And Here You Come Today
TTITLE16=Sunny
TTITLE17=I'll Be Around
TTITLE18=Cielito Lindo
TTITLE19=Blue And Sentimental
TTITLE20=Every Day
EXTD=Originally Released MCA Records 1965-1967
EXTT0=
EXTT1=
EXTT2=
EXTT3=
EXTT4=
EXTT5=
EXTT6=
EXTT7=
EXTT8=
EXTT9=
EXTT10=
EXTT11=
EXTT12=
EXTT13=
EXTT14=
EXTT15=
EXTT16=
EXTT17=
EXTT18=
EXTT19=
EXTT20=
PLAYORDER=
